<?xml version="1.0" standalone="no"?><!DOCTYPE svg PUBLIC "-//W3C//DTD SVG 1.1//EN" "http://www.w3.org/Graphics/SVG/1.1/DTD/svg11.dtd"><svg t="1629735746795" class="icon" viewBox="0 0 1024 1024" version="1.1" xmlns="http://www.w3.org/2000/svg" p-id="4127" xmlns:xlink="http://www.w3.org/1999/xlink" width="200" height="200"><defs><style type="text/css"></style></defs><path d="M480 768a8 8 0 0 1-8-8V552H264a8 8 0 0 1-8-8v-64a8 8 0 0 1 8-8h208V264a8 8 0 0 1 8-8h64a8 8 0 0 1 8 8v208h208a8 8 0 0 1 8 8v64a8 8 0 0 1-8 8H552v208a8 8 0 0 1-8 8h-64z" p-id="4128"></path><path d="M960 512c0 247.424-200.576 448-448 448S64 759.424 64 512 264.576 64 512 64s448 200.576 448 448z m-64 0c0-212.077-171.923-384-384-384S128 299.923 128 512s171.923 384 384 384 384-171.923 384-384z" p-id="4129"></path></svg>