<?xml version="1.0" standalone="no"?><!DOCTYPE svg PUBLIC "-//W3C//DTD SVG 1.1//EN" "http://www.w3.org/Graphics/SVG/1.1/DTD/svg11.dtd"><svg t="1629735609687" class="icon" viewBox="0 0 1024 1024" version="1.1" xmlns="http://www.w3.org/2000/svg" p-id="3541" xmlns:xlink="http://www.w3.org/1999/xlink" width="200" height="200"><defs><style type="text/css"></style></defs><path d="M662.762 296.764c-54.68-63.471-107.735-109.464-148.668-144.947l-1.495-1.296c-11.974 10.774-24.843 22.363-37.423 34.014-34.88 32.304-74.984 71.565-112.945 116.154C284.575 391.903 224 496.051 224 600.852 224 765.077 354.149 896 512 896s288-130.923 288-295.148c0-110.838-60.588-215.115-137.238-304.088zM512.039 64.038c8.698 8.554 21.868 19.998 38.085 34.09C649.658 184.623 864 370.886 864 600.852 864 799.204 706.404 960 512 960S160 799.204 160 600.852c0-219.678 214.57-412.401 313.637-501.38 16.476-14.798 29.757-26.727 38.325-35.433L512 64l0.039 0.038z" fill="#2c2c2c" p-id="3542"></path><path d="M500.398 544.393h-0.099c19.352-47.625 66.083-81.205 120.657-81.205 54.28 0 100.801 33.219 120.342 80.436h0.168A243.656 243.656 0 0 1 746 590.537c0 131.597-104.765 238.277-234 238.277s-234-106.68-234-238.277a244 244 0 0 1 3.642-42.105c17.549 43.495 59.565 74.122 108.605 74.122 50.545 0 93.627-32.535 110.151-78.161z" fill="#2c2c2c" p-id="3543"></path></svg>