<?xml version="1.0" standalone="no"?><!DOCTYPE svg PUBLIC "-//W3C//DTD SVG 1.1//EN" "http://www.w3.org/Graphics/SVG/1.1/DTD/svg11.dtd"><svg t="1629735711874" class="icon" viewBox="0 0 1024 1024" version="1.1" xmlns="http://www.w3.org/2000/svg" p-id="3785" xmlns:xlink="http://www.w3.org/1999/xlink" width="200" height="200"><defs><style type="text/css"></style></defs><path d="M136 792h752V232H136v560zM64 192c0-17.673 14.327-32 32-32h832c17.673 0 32 14.327 32 32v640c0 17.673-14.327 32-32 32H96c-17.673 0-32-14.327-32-32V192z m200 192a8 8 0 0 0-8 8v48a8 8 0 0 0 8 8h303a8 8 0 0 0 8-8v-48a8 8 0 0 0-8-8H264z m-7 200a8 8 0 0 1 8-8h303a8 8 0 0 1 8 8v48a8 8 0 0 1-8 8H265a8 8 0 0 1-8-8v-48z m455-264a8 8 0 0 0-8 8v368a8 8 0 0 0 8 8h48a8 8 0 0 0 8-8V328a8 8 0 0 0-8-8h-48z" p-id="3786" fill="#2c2c2c"></path></svg>